<svg width="28" height="53" viewBox="0 0 28 53" fill="none" xmlns="http://www.w3.org/2000/svg">
<path d="M10 0C4.47715 0 0 4.47715 0 10L0 53L23 53C25.7614 53 28 50.7614 28 48L28 0L10 0Z" fill="#FF0000"/>
<path d="M19 34.676V36.636L12.294 41.074H19V43.034H9.214V41.074L15.934 36.636H9.214V34.676H19ZM14.954 25.5291C15.234 25.5291 15.486 25.5477 15.71 25.5851V31.2551C16.27 31.2084 16.7087 31.0124 17.026 30.6671C17.3433 30.3217 17.502 29.8971 17.502 29.3931C17.502 28.6651 17.1893 28.1471 16.564 27.8391V25.7251C17.3107 25.9491 17.9267 26.3784 18.412 27.0131C18.888 27.6477 19.126 28.4271 19.126 29.3511C19.126 30.0977 18.9627 30.7697 18.636 31.3671C18.3 31.9551 17.8287 32.4171 17.222 32.7531C16.6153 33.0797 15.9153 33.2431 15.122 33.2431C14.3193 33.2431 13.6147 33.0797 13.008 32.7531C12.4013 32.4264 11.9347 31.9691 11.608 31.3811C11.2813 30.7931 11.118 30.1164 11.118 29.3511C11.118 28.6137 11.2767 27.9557 11.594 27.3771C11.9113 26.7891 12.364 26.3364 12.952 26.0191C13.5307 25.6924 14.198 25.5291 14.954 25.5291ZM14.394 27.5591C13.89 27.5684 13.4887 27.7504 13.19 28.1051C12.882 28.4597 12.728 28.8937 12.728 29.4071C12.728 29.8924 12.8773 30.3031 13.176 30.6391C13.4653 30.9657 13.8713 31.1664 14.394 31.2411V27.5591ZM11.244 13.3465L19 15.6145V17.7285L13.582 19.1425L19 20.5565V22.6845L11.244 24.9665V22.9785L17.152 21.6065L11.244 20.1225V18.0505L17.138 16.5945L11.244 15.2225V13.3465Z" fill="white"/>
</svg>
